<?xml version="1.0" encoding="utf-8"?>
<!-- Generator: Adobe Illustrator 16.0.4, SVG Export Plug-In . SVG Version: 6.00 Build 0)  -->
<!DOCTYPE svg PUBLIC "-//W3C//DTD SVG 1.1//EN" "http://www.w3.org/Graphics/SVG/1.1/DTD/svg11.dtd">
<svg version="1.1" id="Layer_1" xmlns="http://www.w3.org/2000/svg" xmlns:xlink="http://www.w3.org/1999/xlink" x="0px" y="0px"
	 width="256px" height="256px" viewBox="0 0 256 256" enable-background="new 0 0 256 256" xml:space="preserve">
<rect fill="#2EA2CC" width="256" height="256"/>
<path fill="#333333" d="M128,70.201c20.597,0,39.368,5.291,56.32,15.872c16.954,10.574,29.71,24.552,38.259,41.927
	c-8.549,17.375-21.305,31.352-38.259,41.932c-16.952,10.582-35.724,15.867-56.32,15.867s-39.371-5.285-56.326-15.867
	C54.722,159.352,41.97,145.375,33.421,128c8.549-17.375,21.301-31.353,38.253-41.927C88.629,75.492,107.403,70.201,128,70.201z
	 M152.692,102.779c0-3.083-0.905-5.813-2.73-8.194c-1.827-2.38-4.125-3.992-6.938-4.833c-1.189-0.144-2.904-0.282-5.15-0.421
	c-3.428,0.277-6.334,1.698-8.719,4.253c-2.382,2.562-3.572,5.624-3.572,9.195c0,3.716,1.329,6.902,3.992,9.565
	s5.854,3.992,9.569,3.992c3.777,0,6.979-1.329,9.605-3.992C151.378,109.682,152.692,106.495,152.692,102.779z M128,173.195
	c17.098,0,32.84-4.248,47.238-12.725s25.276-19.293,32.624-32.471c-4.823-8.616-11.452-15.918-19.857-21.91
	c-8.404-5.988-18.072-10.422-29.001-13.29c7.635,8.194,11.452,17.862,11.452,29.002c0,11.699-4.157,21.694-12.449,30.009
	c-8.312,8.291-18.308,12.447-30.007,12.447s-21.7-4.156-30.003-12.447c-8.302-8.314-12.452-18.31-12.452-30.009
	c0-11.14,3.816-20.808,11.452-29.002c-10.93,2.868-20.597,7.302-29.001,13.29c-8.406,5.992-15.029,13.294-19.864,21.91
	c7.358,13.178,18.231,23.994,32.631,32.471C95.16,168.947,110.908,173.195,128,173.195z"/>
</svg>
